<svg width="19" height="19" viewBox="0 0 19 19" fill="none" xmlns="http://www.w3.org/2000/svg">
<g clip-path="url(#clip0_11735_12224)">
<path d="M6.17401 4.68253L6.70962 6.16996C7.30459 7.82081 8.6046 9.12082 10.2554 9.71579L11.7429 10.2514C11.8769 10.3001 11.8769 10.4902 11.7429 10.5382L10.2554 11.0738C8.6046 11.6688 7.30459 12.9688 6.70962 14.6196L6.17401 16.1071C6.12532 16.2412 5.93522 16.2412 5.8872 16.1071L5.35159 14.6196C4.75661 12.9688 3.45661 11.6688 1.80576 11.0738L0.318325 10.5382C0.184256 10.4895 0.184256 10.2994 0.318325 10.2514L1.80576 9.71579C3.45661 9.12082 4.75661 7.82081 5.35159 6.16996L5.8872 4.68253C5.93522 4.54779 6.12532 4.54779 6.17401 4.68253Z" fill="url(#paint0_linear_11735_12224)"/>
<path d="M12.0878 1.0539L12.3409 1.75601C12.622 2.53523 13.2358 3.14903 14.015 3.43012L14.7171 3.68323C14.7805 3.70624 14.7805 3.79579 14.7171 3.8188L14.015 4.0719C13.2358 4.35299 12.622 4.96679 12.3409 5.74601L12.0878 6.44812C12.0648 6.51155 11.9752 6.51155 11.9522 6.44812L11.6991 5.74601C11.418 4.96679 10.8042 4.35299 10.025 4.0719L9.32289 3.8188C9.25946 3.79579 9.25946 3.70624 9.32289 3.68323L10.025 3.43012C10.8042 3.14903 11.418 2.53523 11.6991 1.75601L11.9522 1.0539C11.9752 0.989846 12.0654 0.989846 12.0878 1.0539Z" fill="url(#paint1_linear_11735_12224)"/>
<path d="M15.5409 10.6983L15.794 11.4004C16.0751 12.1796 16.6889 12.7934 17.4681 13.0745L18.1702 13.3276C18.2336 13.3506 18.2336 13.4402 18.1702 13.4632L17.4681 13.7163C16.6889 13.9974 16.0751 14.6112 15.794 15.3904L15.5409 16.0925C15.5179 16.1559 15.4283 16.1559 15.4053 16.0925L15.1522 15.3904C14.8711 14.6112 14.2573 13.9974 13.4781 13.7163L12.776 13.4632C12.7125 13.4402 12.7125 13.3506 12.776 13.3276L13.4781 13.0745C14.2573 12.7934 14.8711 12.1796 15.1522 11.4004L15.4053 10.6983C15.4283 10.6349 15.5185 10.6349 15.5409 10.6983Z" fill="url(#paint2_linear_11735_12224)"/>
</g>
<defs>
<linearGradient id="paint0_linear_11735_12224" x1="2.85381" y1="3.23214" x2="13.4514" y2="15.7805" gradientUnits="userSpaceOnUse">
<stop stop-color="#673AE3"/>
<stop offset="0.403846" stop-color="#7279F8"/>
<stop offset="0.875" stop-color="#1548B5"/>
<stop offset="1" stop-color="#113397"/>
</linearGradient>
<linearGradient id="paint1_linear_11735_12224" x1="2.85381" y1="3.23214" x2="13.4514" y2="15.7805" gradientUnits="userSpaceOnUse">
<stop stop-color="#673AE3"/>
<stop offset="0.403846" stop-color="#7279F8"/>
<stop offset="0.875" stop-color="#1548B5"/>
<stop offset="1" stop-color="#113397"/>
</linearGradient>
<linearGradient id="paint2_linear_11735_12224" x1="2.85381" y1="3.23214" x2="13.4514" y2="15.7805" gradientUnits="userSpaceOnUse">
<stop stop-color="#673AE3"/>
<stop offset="0.403846" stop-color="#7279F8"/>
<stop offset="0.875" stop-color="#1548B5"/>
<stop offset="1" stop-color="#113397"/>
</linearGradient>
<clipPath id="clip0_11735_12224">
<rect width="18" height="18" fill="white" transform="translate(0.260742 0.169922)"/>
</clipPath>
</defs>
</svg>
