<svg width="16" height="17" viewBox="0 0 16 17" fill="none" xmlns="http://www.w3.org/2000/svg">
<g clip-path="url(#clip0_11735_12864)">
<path d="M7.41668 8.4046C7.23094 8.21875 7.01041 8.07131 6.76767 7.97072C6.52494 7.87013 6.26476 7.81836 6.00201 7.81836C5.73926 7.81836 5.47908 7.87013 5.23635 7.97072C4.99361 8.07131 4.77308 8.21875 4.58734 8.4046L0.0273438 12.9646C0.0889841 13.8007 0.463949 14.5826 1.07726 15.1542C1.69057 15.7257 2.49702 16.0447 3.33534 16.0473H12.6687C13.3218 16.0471 13.9604 15.8539 14.504 15.4919L7.41668 8.4046Z" fill="currentColor"/>
<path d="M11.9986 5.38053C12.735 5.38053 13.332 4.78358 13.332 4.0472C13.332 3.31082 12.735 2.71387 11.9986 2.71387C11.2622 2.71387 10.6653 3.31082 10.6653 4.0472C10.6653 4.78358 11.2622 5.38053 11.9986 5.38053Z" fill="currentColor"/>
<path d="M12.6667 0.0473633H3.33333C2.4496 0.0484219 1.60237 0.399951 0.97748 1.02484C0.352588 1.64974 0.00105857 2.49697 0 3.3807L0 11.1047L3.64267 7.46203C3.95221 7.15241 4.31971 6.9068 4.72419 6.73923C5.12866 6.57166 5.56219 6.48541 6 6.48541C6.43781 6.48541 6.87134 6.57166 7.27582 6.73923C7.68029 6.9068 8.04779 7.15241 8.35733 7.46203L15.4447 14.5494C15.8067 14.0057 15.9999 13.3672 16 12.714V3.3807C15.9989 2.49697 15.6474 1.64974 15.0225 1.02484C14.3976 0.399951 13.5504 0.0484219 12.6667 0.0473633ZM12 6.71403C11.4726 6.71403 10.957 6.55763 10.5185 6.26462C10.0799 5.9716 9.73816 5.55512 9.53632 5.06785C9.33449 4.58058 9.28168 4.04441 9.38457 3.52712C9.48747 3.00984 9.74144 2.53469 10.1144 2.16175C10.4873 1.78881 10.9625 1.53483 11.4798 1.43194C11.997 1.32904 12.5332 1.38185 13.0205 1.58368C13.5078 1.78552 13.9242 2.12731 14.2173 2.56584C14.5103 3.00437 14.6667 3.51995 14.6667 4.04736C14.6667 4.75461 14.3857 5.43289 13.8856 5.93298C13.3855 6.43308 12.7072 6.71403 12 6.71403Z" fill="currentColor"/>
</g>
<defs>
<clipPath id="clip0_11735_12864">
<rect width="16" height="16" fill="white" transform="translate(0 0.0473633)"/>
</clipPath>
</defs>
</svg>
