<svg width="18" height="19" viewBox="0 0 18 19" fill="none" xmlns="http://www.w3.org/2000/svg">
<g clip-path="url(#clip0_11735_12873)">
<path d="M18 6.04736V12.0474C18 14.1181 16.3207 15.7974 14.25 15.7974H12.75V2.29736H14.25C16.3207 2.29736 18 3.97661 18 6.04736ZM11.25 2.29736V15.7974H3.75C1.67925 15.7974 0 14.1181 0 12.0474V6.04736C0 3.97661 1.67925 2.29736 3.75 2.29736H11.25ZM8.25 6.04736C8.25 5.63261 7.914 5.29736 7.5 5.29736H3C2.586 5.29736 2.25 5.63261 2.25 6.04736C2.25 6.46211 2.586 6.79736 3 6.79736H4.5V12.0474C4.5 12.4621 4.836 12.7974 5.25 12.7974C5.664 12.7974 6 12.4621 6 12.0474V6.79736H7.5C7.914 6.79736 8.25 6.46211 8.25 6.04736ZM10.5 16.5474C10.086 16.5474 9.75 16.8826 9.75 17.2974C9.75 17.7121 10.086 18.0474 10.5 18.0474C11.076 18.0474 11.6018 17.8299 12 17.4729C12.3982 17.8299 12.924 18.0474 13.5 18.0474C13.914 18.0474 14.25 17.7121 14.25 17.2974C14.25 16.8826 13.914 16.5474 13.5 16.5474C13.086 16.5474 12.75 16.2114 12.75 15.7974H11.25C11.25 16.2114 10.9132 16.5474 10.5 16.5474ZM13.5 1.54736C13.914 1.54736 14.25 1.21211 14.25 0.797363C14.25 0.382613 13.914 0.0473633 13.5 0.0473633C12.924 0.0473633 12.3982 0.264863 12 0.621863C11.6018 0.264863 11.076 0.0473633 10.5 0.0473633C10.086 0.0473633 9.75 0.382613 9.75 0.797363C9.75 1.21211 10.086 1.54736 10.5 1.54736C10.914 1.54736 11.25 1.88336 11.25 2.29736H12.75C12.75 1.88336 13.0868 1.54736 13.5 1.54736Z" fill="currentColor" fill-opacity="0.8"/>
</g>
<defs>
<clipPath id="clip0_11735_12873">
<rect width="18" height="18" fill="white" transform="translate(0 0.0473633)"/>
</clipPath>
</defs>
</svg>
